<svg xmlns="http://www.w3.org/2000/svg" width="3900" height="1850" viewBox="0 0 3900 1850" preserveAspectRatio="xMidYMid meet"><rect x="0" y="0" width="100%" height="100%" fill="#ffffff"/><defs><marker id="arrowBlue" markerWidth="22" markerHeight="22" refX="18" refY="11" orient="auto" markerUnits="userSpaceOnUse"><path d="M0,0 L22,11 L0,22 z" fill="#2f73c8"/></marker><marker id="arrowGreen" markerWidth="22" markerHeight="22" refX="18" refY="11" orient="auto" markerUnits="userSpaceOnUse"><path d="M0,0 L22,11 L0,22 z" fill="#3a8f58"/></marker><marker id="arrowOrange" markerWidth="22" markerHeight="22" refX="18" refY="11" orient="auto" markerUnits="userSpaceOnUse"><path d="M0,0 L22,11 L0,22 z" fill="#c56f2a"/></marker><marker id="arrowGray" markerWidth="22" markerHeight="22" refX="18" refY="11" orient="auto" markerUnits="userSpaceOnUse"><path d="M0,0 L22,11 L0,22 z" fill="#526274"/></marker></defs><rect x="80" y="250" width="390" height="430" rx="26" fill="#eef5fb" stroke="#6ea3c8" stroke-width="5"/><rect x="230.0" y="320.625" width="90.0" height="108.75" rx="10" fill="#fff" stroke="#526274" stroke-width="4"/><path d="M291.2,320.6 L320.0,347.8 L291.2,347.8 Z" fill="#d7e3ec" stroke="#526274" stroke-width="3"/><line x1="246.2" y1="375.0" x2="285.8" y2="375.0" stroke="#9aa9b6" stroke-width="5"/><line x1="246.2" y1="392.4" x2="294.8" y2="392.4" stroke="#9aa9b6" stroke-width="5"/><line x1="246.2" y1="409.8" x2="278.6" y2="409.8" stroke="#9aa9b6" stroke-width="5"/><text x="275.0" y="525" font-family="Arial, Helvetica, sans-serif" font-size="43" font-weight="bold" text-anchor="middle" fill="#23364d"><tspan x="275.0" dy="0.0">Released product</tspan><tspan x="275.0" dy="49.4">revision</tspan></text><rect x="545" y="250" width="390" height="430" rx="26" fill="#eef5fb" stroke="#6ea3c8" stroke-width="5"/><rect x="689.375" y="320.625" width="101.25" height="108.75" rx="10" fill="#fff" stroke="#526274" stroke-width="4"/><rect x="702.9" y="343.1" width="18" height="18" rx="3" fill="#eef8f1" stroke="#3a8f58" stroke-width="3"/><path d="M705.9,350.6 l3.8,4.5 l7.5,-9.8" fill="none" stroke="#3a8f58" stroke-width="4"/><line x1="726.9" y1="350.6" x2="771.9" y2="350.6" stroke="#9aa9b6" stroke-width="5"/><rect x="702.9" y="368.6" width="18" height="18" rx="3" fill="#eef8f1" stroke="#3a8f58" stroke-width="3"/><path d="M705.9,376.1 l3.8,4.5 l7.5,-9.8" fill="none" stroke="#3a8f58" stroke-width="4"/><line x1="726.9" y1="376.1" x2="771.9" y2="376.1" stroke="#9aa9b6" stroke-width="5"/><rect x="702.9" y="394.1" width="18" height="18" rx="3" fill="#eef8f1" stroke="#3a8f58" stroke-width="3"/><path d="M705.9,401.6 l3.8,4.5 l7.5,-9.8" fill="none" stroke="#3a8f58" stroke-width="4"/><line x1="726.9" y1="401.6" x2="771.9" y2="401.6" stroke="#9aa9b6" stroke-width="5"/><text x="740.0" y="525" font-family="Arial, Helvetica, sans-serif" font-size="43" font-weight="bold" text-anchor="middle" fill="#23364d"><tspan x="740.0" dy="0.0">Manufacturing-data</tspan><tspan x="740.0" dy="49.4">review</tspan></text><rect x="1010" y="250" width="420" height="430" rx="26" fill="#eef5fb" stroke="#6ea3c8" stroke-width="5"/><path d="M1161.5,351.6 L1204.4,351.6 L1217.7,332.1 L1278.5,332.1 L1278.5,417.9 L1161.5,417.9 Z" fill="#e4eef7" stroke="#526274" stroke-width="4"/><text x="1220.0" y="525" font-family="Arial, Helvetica, sans-serif" font-size="43" font-weight="bold" text-anchor="middle" fill="#23364d"><tspan x="1220.0" dy="0.0">Job package +</tspan><tspan x="1220.0" dy="49.4">programs prepared</tspan></text><rect x="1505" y="250" width="470" height="430" rx="26" fill="#edf7f7" stroke="#76a7a7" stroke-width="5"/><circle cx="1704.9" cy="375" r="32.76" fill="#fff" stroke="#526274" stroke-width="4"/><circle cx="1704.9" cy="375" r="9.36" fill="#d7e3ec" stroke="#526274" stroke-width="3"/><rect x="1743.9" y="350.04" width="78.0" height="49.92" rx="10" fill="#fff" stroke="#526274" stroke-width="4"/><line x1="1759.5" y1="375" x2="1806.3" y2="375" stroke="#9aa9b6" stroke-width="7"/><text x="1740.0" y="525" font-family="Arial, Helvetica, sans-serif" font-size="43" font-weight="bold" text-anchor="middle" fill="#23364d"><tspan x="1740.0" dy="0.0">Material / tooling /</tspan><tspan x="1740.0" dy="49.4">equipment readiness</tspan></text><rect x="2050" y="250" width="410" height="430" rx="26" fill="#eef8f1" stroke="#77ad88" stroke-width="5"/><rect x="2194.55" y="336.0" width="120.9" height="78.0" rx="10" fill="#5aa36d" stroke="#315f41" stroke-width="4"/><rect x="2209.058" y="350.04" width="26.598000000000003" height="21.840000000000003" rx="4" fill="#273444" stroke="#19232e" stroke-width="2"/><rect x="2252.5820000000003" y="346.92" width="36.27" height="27.299999999999997" rx="4" fill="#273444" stroke="#19232e" stroke-width="2"/><rect x="2213.8940000000002" y="382.8" width="21.762" height="15.600000000000001" rx="4" fill="#273444" stroke="#19232e" stroke-width="2"/><rect x="2257.418" y="384.36" width="21.762" height="14.04" rx="4" fill="#273444" stroke="#19232e" stroke-width="2"/><text x="2255.0" y="525" font-family="Arial, Helvetica, sans-serif" font-size="43" font-weight="bold" text-anchor="middle" fill="#23364d"><tspan x="2255.0" dy="0.0">Initial / staged</tspan><tspan x="2255.0" dy="49.4">build</tspan></text><text x="2255.0" y="622" font-family="Arial, Helvetica, sans-serif" font-size="35" font-weight="bold" text-anchor="middle" fill="#3a8f58"><tspan x="2255.0" dy="0.0">as applicable</tspan></text><rect x="2510" y="250" width="380" height="430" rx="26" fill="#fff7e8" stroke="#d0a45c" stroke-width="5"/><circle cx="2689.2" cy="375" r="41.76" fill="#fff" stroke="#526274" stroke-width="4"/><line x1="2720.16" y1="405.96" x2="2756.16" y2="441.24" stroke="#526274" stroke-width="12" stroke-linecap="round"/><path d="M2669.04,375 l12.959999999999999,14.399999999999999 l28.799999999999997,-34.56" fill="none" stroke="#3a8f58" stroke-width="10" stroke-linecap="round" stroke-linejoin="round"/><text x="2700.0" y="525" font-family="Arial, Helvetica, sans-serif" font-size="43" font-weight="bold" text-anchor="middle" fill="#23364d"><tspan x="2700.0" dy="0.0">First-board / setup</tspan><tspan x="2700.0" dy="49.4">verification</tspan></text><line x1="485" y1="465" x2="520" y2="465" stroke="#2f73c8" stroke-width="10" stroke-linecap="round" marker-end="url(#arrowBlue)"/><line x1="950" y1="465" x2="985" y2="465" stroke="#2f73c8" stroke-width="10" stroke-linecap="round" marker-end="url(#arrowBlue)"/><line x1="1445" y1="465" x2="1480" y2="465" stroke="#2f73c8" stroke-width="10" stroke-linecap="round" marker-end="url(#arrowBlue)"/><line x1="1990" y1="465" x2="2025" y2="465" stroke="#2f73c8" stroke-width="10" stroke-linecap="round" marker-end="url(#arrowBlue)"/><line x1="2475" y1="465" x2="2485" y2="465" stroke="#2f73c8" stroke-width="10" stroke-linecap="round" marker-end="url(#arrowBlue)"/><polygon points="3145,295.0 3340.0,465 3145,635.0 2950.0,465" fill="#fff7e8" stroke="#d0a45c" stroke-width="5"/><text x="3145" y="430" font-family="Arial, Helvetica, sans-serif" font-size="44" font-weight="bold" text-anchor="middle" fill="#23364d"><tspan x="3145" dy="0.0">Required checks</tspan><tspan x="3145" dy="50.6">satisfied?</tspan></text><line x1="2905" y1="465" x2="2930" y2="465" stroke="#2f73c8" stroke-width="10" stroke-linecap="round" marker-end="url(#arrowBlue)"/><rect x="3420" y="245" width="400" height="440" rx="26" fill="#eef8f1" stroke="#77ad88" stroke-width="5"/><circle cx="3620.0" cy="365" r="58" fill="#fff" stroke="#77ad88" stroke-width="4"/><path d="M 3552 367 l 28 28 l 58 -70" fill="none" stroke="#3a8f58" stroke-width="12" stroke-linecap="round" stroke-linejoin="round"/><text x="3620.0" y="500" font-family="Arial, Helvetica, sans-serif" font-size="42" font-weight="bold" text-anchor="middle" fill="#23364d"><tspan x="3620.0" dy="0.0">Proceed to next</tspan><tspan x="3620.0" dy="47.0">authorized</tspan><tspan x="3620.0" dy="47.0">production stage</tspan></text><line x1="3352.0" y1="390" x2="3395" y2="390" stroke="#3a8f58" stroke-width="10" stroke-linecap="round" marker-end="url(#arrowGreen)"/><text x="3380" y="355" font-family="Arial, Helvetica, sans-serif" font-size="38" font-weight="bold" text-anchor="middle" fill="#3a8f58"><tspan x="3380" dy="0.0">YES</tspan></text><rect x="2735" y="1000" width="650" height="300" rx="26" fill="#fff2e8" stroke="#d98b52" stroke-width="5"/><text x="3060.0" y="1120" font-family="Arial, Helvetica, sans-serif" font-size="45" font-weight="bold" text-anchor="middle" fill="#23364d"><tspan x="3060.0" dy="0.0">Controlled correction /</tspan><tspan x="3060.0" dy="51.7">engineering change</tspan></text><rect x="1840" y="1000" width="700" height="300" rx="26" fill="#f5f0fa" stroke="#8e77ae" stroke-width="5"/><text x="2190.0" y="1120" font-family="Arial, Helvetica, sans-serif" font-size="45" font-weight="bold" text-anchor="middle" fill="#23364d"><tspan x="2190.0" dy="0.0">Update affected controlled</tspan><tspan x="2190.0" dy="51.7">information / outputs</tspan></text><polyline points="3145,635 3145,790 3060,790 3060,970" fill="none" stroke="#c56f2a" stroke-width="10" stroke-linecap="round" stroke-linejoin="round" marker-end="url(#arrowOrange)"/><text x="3030" y="745" font-family="Arial, Helvetica, sans-serif" font-size="38" font-weight="bold" text-anchor="middle" fill="#c56f2a"><tspan x="3030" dy="0.0">NO / issue found</tspan></text><line x1="2715" y1="1150" x2="2560" y2="1150" stroke="#c56f2a" stroke-width="10" stroke-linecap="round" marker-end="url(#arrowOrange)"/><polyline points="1960,1300 1960,1600 740.0,1600 740.0,710" fill="none" stroke="#526274" stroke-width="10" stroke-linecap="round" stroke-linejoin="round" marker-end="url(#arrowGray)"/><text x="1300" y="1555" font-family="Arial, Helvetica, sans-serif" font-size="39" font-weight="bold" text-anchor="middle" fill="#526274"><tspan x="1300" dy="0.0">Recheck readiness</tspan></text></svg>